<svg id="SvgjsSvg1206" width="817.5" height="471" xmlns="http://www.w3.org/2000/svg" version="1.1" xmlns:xlink="http://www.w3.org/1999/xlink" xmlns:svgjs="http://svgjs.com/svgjs"><defs id="SvgjsDefs1207"><linearGradient id="SvgjsLinearGradient1236" x1="1" y1="0" x2="0" y2="1"><stop id="SvgjsStop1237" stop-opacity="1" stop-color="#ffffff" offset="0"></stop><stop id="SvgjsStop1238" stop-opacity="1" stop-color="#c3c3c3" offset="1"></stop></linearGradient><linearGradient id="SvgjsLinearGradient1243" x1="1" y1="0" x2="0" y2="1"><stop id="SvgjsStop1244" stop-opacity="1" stop-color="#ffffff" offset="0"></stop><stop id="SvgjsStop1245" stop-opacity="1" stop-color="#c3c3c3" offset="1"></stop></linearGradient><linearGradient id="SvgjsLinearGradient1250" x1="1" y1="0" x2="0" y2="1"><stop id="SvgjsStop1251" stop-opacity="1" stop-color="#ffffff" offset="0"></stop><stop id="SvgjsStop1252" stop-opacity="1" stop-color="#c3c3c3" offset="1"></stop></linearGradient><linearGradient id="SvgjsLinearGradient1257" x1="1" y1="0" x2="0" y2="1"><stop id="SvgjsStop1258" stop-opacity="1" stop-color="#ffffff" offset="0"></stop><stop id="SvgjsStop1259" stop-opacity="1" stop-color="#c3c3c3" offset="1"></stop></linearGradient><linearGradient id="SvgjsLinearGradient1268" x1="1" y1="0" x2="0" y2="1"><stop id="SvgjsStop1269" stop-opacity="1" stop-color="#ffffff" offset="0"></stop><stop id="SvgjsStop1270" stop-opacity="1" stop-color="#c3c3c3" offset="1"></stop></linearGradient><marker id="SvgjsMarker1277" markerWidth="16" markerHeight="12" refX="10" refY="6" viewBox="0 0 16 12" orient="auto" markerUnits="userSpaceOnUse" stroke-dasharray="0,0"><path id="SvgjsPath1278" d="M0,3 L10,6 L0,9 L0,3" fill="#323232" stroke="#323232" stroke-width="1"></path></marker><linearGradient id="SvgjsLinearGradient1281" x1="1" y1="0" x2="0" y2="1"><stop id="SvgjsStop1282" stop-opacity="1" stop-color="#ffffff" offset="0"></stop><stop id="SvgjsStop1283" stop-opacity="1" stop-color="#c3c3c3" offset="1"></stop></linearGradient><marker id="SvgjsMarker1293" markerWidth="16" markerHeight="12" refX="10" refY="6" viewBox="0 0 16 12" orient="auto" markerUnits="userSpaceOnUse" stroke-dasharray="0,0"><path id="SvgjsPath1294" d="M0,3 L10,6 L0,9 L0,3" fill="#323232" stroke="#323232" stroke-width="1"></path></marker><linearGradient id="SvgjsLinearGradient1297" x1="1" y1="0" x2="0" y2="1"><stop id="SvgjsStop1298" stop-opacity="1" stop-color="#ffffff" offset="0"></stop><stop id="SvgjsStop1299" stop-opacity="1" stop-color="#c3c3c3" offset="1"></stop></linearGradient><marker id="SvgjsMarker1306" markerWidth="16" markerHeight="12" refX="10" refY="6" viewBox="0 0 16 12" orient="auto" markerUnits="userSpaceOnUse" stroke-dasharray="0,0"><path id="SvgjsPath1307" d="M0,3 L10,6 L0,9 L0,3" fill="#323232" stroke="#323232" stroke-width="1"></path></marker><linearGradient id="SvgjsLinearGradient1310" x1="1" y1="0" x2="0" y2="1"><stop id="SvgjsStop1311" stop-opacity="1" stop-color="#ffffff" offset="0"></stop><stop id="SvgjsStop1312" stop-opacity="1" stop-color="#c3c3c3" offset="1"></stop></linearGradient><marker id="SvgjsMarker1322" markerWidth="16" markerHeight="12" refX="10" refY="6" viewBox="0 0 16 12" orient="auto" markerUnits="userSpaceOnUse" stroke-dasharray="0,0"><path id="SvgjsPath1323" d="M0,3 L10,6 L0,9 L0,3" fill="#323232" stroke="#323232" stroke-width="1"></path></marker><linearGradient id="SvgjsLinearGradient1326" x1="1" y1="0" x2="0" y2="1"><stop id="SvgjsStop1327" stop-opacity="1" stop-color="#ffffff" offset="0"></stop><stop id="SvgjsStop1328" stop-opacity="1" stop-color="#c3c3c3" offset="1"></stop></linearGradient><marker id="SvgjsMarker1335" markerWidth="16" markerHeight="12" refX="10" refY="6" viewBox="0 0 16 12" orient="auto" markerUnits="userSpaceOnUse" stroke-dasharray="0,0"><path id="SvgjsPath1336" d="M0,3 L10,6 L0,9 L0,3" fill="#323232" stroke="#323232" stroke-width="1"></path></marker><linearGradient id="SvgjsLinearGradient1339" x1="1" y1="0" x2="0" y2="1"><stop id="SvgjsStop1340" stop-opacity="1" stop-color="#ffffff" offset="0"></stop><stop id="SvgjsStop1341" stop-opacity="1" stop-color="#c3c3c3" offset="1"></stop></linearGradient><linearGradient id="SvgjsLinearGradient1348" x1="1" y1="0" x2="0" y2="1"><stop id="SvgjsStop1349" stop-opacity="1" stop-color="#ffffff" offset="0"></stop><stop id="SvgjsStop1350" stop-opacity="1" stop-color="#c3c3c3" offset="1"></stop></linearGradient><linearGradient id="SvgjsLinearGradient1357" x1="1" y1="0" x2="0" y2="1"><stop id="SvgjsStop1358" stop-opacity="1" stop-color="#ffffff" offset="0"></stop><stop id="SvgjsStop1359" stop-opacity="1" stop-color="#c3c3c3" offset="1"></stop></linearGradient><linearGradient id="SvgjsLinearGradient1366" x1="1" y1="0" x2="0" y2="1"><stop id="SvgjsStop1367" stop-opacity="1" stop-color="#ffffff" offset="0"></stop><stop id="SvgjsStop1368" stop-opacity="1" stop-color="#c3c3c3" offset="1"></stop></linearGradient><linearGradient id="SvgjsLinearGradient1375" x1="1" y1="0" x2="0" y2="1"><stop id="SvgjsStop1376" stop-opacity="1" stop-color="#ffffff" offset="0"></stop><stop id="SvgjsStop1377" stop-opacity="1" stop-color="#c3c3c3" offset="1"></stop></linearGradient><marker id="SvgjsMarker1384" markerWidth="16" markerHeight="12" refX="10" refY="6" viewBox="0 0 16 12" orient="auto" markerUnits="userSpaceOnUse" stroke-dasharray="0,0"><path id="SvgjsPath1385" d="M0,3 L10,6 L0,9 L0,3" fill="#323232" stroke="#323232" stroke-width="1"></path></marker><marker id="SvgjsMarker1388" markerWidth="16" markerHeight="12" refX="10" refY="6" viewBox="0 0 16 12" orient="auto" markerUnits="userSpaceOnUse" stroke-dasharray="0,0"><path id="SvgjsPath1389" d="M0,3 L10,6 L0,9 L0,3" fill="#323232" stroke="#323232" stroke-width="1"></path></marker><marker id="SvgjsMarker1392" markerWidth="16" markerHeight="12" refX="10" refY="6" viewBox="0 0 16 12" orient="auto" markerUnits="userSpaceOnUse" stroke-dasharray="0,0"><path id="SvgjsPath1393" d="M0,3 L10,6 L0,9 L0,3" fill="#323232" stroke="#323232" stroke-width="1"></path></marker><marker id="SvgjsMarker1396" markerWidth="16" markerHeight="12" refX="10" refY="6" viewBox="0 0 16 12" orient="auto" markerUnits="userSpaceOnUse" stroke-dasharray="0,0"><path id="SvgjsPath1397" d="M0,3 L10,6 L0,9 L0,3" fill="#323232" stroke="#323232" stroke-width="1"></path></marker><marker id="SvgjsMarker1400" markerWidth="16" markerHeight="12" refX="10" refY="6" viewBox="0 0 16 12" orient="auto" markerUnits="userSpaceOnUse" stroke-dasharray="0,0"><path id="SvgjsPath1401" d="M0,3 L10,6 L0,9 L0,3" fill="#323232" stroke="#323232" stroke-width="1"></path></marker><marker id="SvgjsMarker1404" markerWidth="16" markerHeight="12" refX="10" refY="6" viewBox="0 0 16 12" orient="auto" markerUnits="userSpaceOnUse" stroke-dasharray="0,0"><path id="SvgjsPath1405" d="M0,3 L10,6 L0,9 L0,3" fill="#323232" stroke="#323232" stroke-width="1"></path></marker></defs><g id="SvgjsG1208" transform="translate(38.5,66)"><path id="SvgjsPath1209" d="M 0 0L 125 0L 125 50L 0 50Z" stroke="none" fill="none"></path><g id="SvgjsG1210"><text id="SvgjsText1211" font-family="微软雅黑" text-anchor="middle" font-size="15px" width="125px" fill="#323232" font-weight="700" align="middle" lineHeight="125%" anchor="middle" family="微软雅黑" size="15px" weight="700" font-style="" opacity="1" y="5.125" transform="rotate(0)"><tspan id="SvgjsTspan1212" dy="18" x="62.5"><tspan id="SvgjsTspan1213" style="text-decoration:;">Level 3:</tspan></tspan><tspan id="SvgjsTspan1214" dy="18" x="62.5"><tspan id="SvgjsTspan1215" style="text-decoration:;">语言，开发环境</tspan></tspan></text></g></g><g id="SvgjsG1216" transform="translate(25,203.25)"><path id="SvgjsPath1217" d="M 0 0L 152 0L 152 61L 0 61Z" stroke="none" fill="none"></path><g id="SvgjsG1218"><text id="SvgjsText1219" font-family="微软雅黑" text-anchor="middle" font-size="15px" width="152px" fill="#323232" font-weight="700" align="middle" lineHeight="125%" anchor="middle" family="微软雅黑" size="15px" weight="700" font-style="" opacity="1" y="1.625" transform="rotate(0)"><tspan id="SvgjsTspan1220" dy="18" x="76"><tspan id="SvgjsTspan1221" style="text-decoration:;">Level 2:</tspan></tspan><tspan id="SvgjsTspan1222" dy="18" x="76"><tspan id="SvgjsTspan1223" style="text-decoration:;">面向切面的系统</tspan></tspan><tspan id="SvgjsTspan1224" dy="18" x="76"><tspan id="SvgjsTspan1225" style="text-decoration:;">（可以是 CT 或 RT）</tspan></tspan></text></g></g><g id="SvgjsG1226" transform="translate(38.5,356.5)"><path id="SvgjsPath1227" d="M 0 0L 125 0L 125 45L 0 45Z" stroke="none" fill="none"></path><g id="SvgjsG1228"><text id="SvgjsText1229" font-family="微软雅黑" text-anchor="middle" font-size="15px" width="125px" fill="#323232" font-weight="700" align="middle" lineHeight="125%" anchor="middle" family="微软雅黑" size="15px" weight="700" font-style="" opacity="1" y="2.625" transform="rotate(0)"><tspan id="SvgjsTspan1230" dy="18" x="62.5"><tspan id="SvgjsTspan1231" style="text-decoration:;">Level 1:</tspan></tspan><tspan id="SvgjsTspan1232" dy="18" x="62.5"><tspan id="SvgjsTspan1233" style="text-decoration:;">底层编制实现模块</tspan></tspan></text></g></g><g id="SvgjsG1234" transform="translate(186.5,25)"><path id="SvgjsPath1235" d="M 0 4Q 0 0 4 0L 419 0Q 423 0 423 4L 423 128Q 423 132 419 132L 4 132Q 0 132 0 128Z" stroke-dasharray="10,6" stroke="rgba(50,50,50,1)" stroke-width="2" fill="url(#SvgjsLinearGradient1236)"></path><g id="SvgjsG1239"><text id="SvgjsText1240" font-family="微软雅黑" text-anchor="middle" font-size="13px" width="403px" fill="#323232" font-weight="400" align="middle" lineHeight="125%" anchor="middle" family="微软雅黑" size="13px" weight="400" font-style="" opacity="1" y="56.375" transform="rotate(0)"></text></g></g><g id="SvgjsG1241" transform="translate(186.5,170)"><path id="SvgjsPath1242" d="M 0 4Q 0 0 4 0L 602.5 0Q 606.5 0 606.5 4L 606.5 125Q 606.5 129 602.5 129L 4 129Q 0 129 0 125Z" stroke-dasharray="10,6" stroke="rgba(50,50,50,1)" stroke-width="2" fill="url(#SvgjsLinearGradient1243)"></path><g id="SvgjsG1246"><text id="SvgjsText1247" font-family="微软雅黑" text-anchor="middle" font-size="13px" width="587px" fill="#323232" font-weight="400" align="middle" lineHeight="125%" anchor="middle" family="微软雅黑" size="13px" weight="400" font-style="" opacity="1" y="54.875" transform="rotate(0)"></text></g></g><g id="SvgjsG1248" transform="translate(186.5,312)"><path id="SvgjsPath1249" d="M 0 4Q 0 0 4 0L 602.5 0Q 606.5 0 606.5 4L 606.5 130Q 606.5 134 602.5 134L 4 134Q 0 134 0 130Z" stroke-dasharray="10,6" stroke="rgba(50,50,50,1)" stroke-width="2" fill="url(#SvgjsLinearGradient1250)"></path><g id="SvgjsG1253"><text id="SvgjsText1254" font-family="微软雅黑" text-anchor="middle" font-size="13px" width="587px" fill="#323232" font-weight="400" align="middle" lineHeight="125%" anchor="middle" family="微软雅黑" size="13px" weight="400" font-style="" opacity="1" y="57.375" transform="rotate(0)"></text></g></g><g id="SvgjsG1255" transform="translate(312.5,35)"><path id="SvgjsPath1256" d="M 0 26.5C 0 -8.833333333333334 171 -8.833333333333334 171 26.5C 171 61.833333333333336 0 61.833333333333336 0 26.5Z" stroke="rgba(50,50,50,1)" stroke-width="2" fill="url(#SvgjsLinearGradient1257)"></path><g id="SvgjsG1260"><text id="SvgjsText1261" font-family="微软雅黑" text-anchor="middle" font-size="13px" width="151px" fill="#323232" font-weight="700" align="middle" lineHeight="125%" anchor="middle" family="微软雅黑" size="13px" weight="700" font-style="" opacity="1" y="8.875" transform="rotate(0)"><tspan id="SvgjsTspan1262" dy="16" x="85.5"><tspan id="SvgjsTspan1263" style="text-decoration:;">AOP 程序</tspan></tspan><tspan id="SvgjsTspan1264" dy="16" x="85.5"><tspan id="SvgjsTspan1265" style="text-decoration:;">（基础 + 切面 + (配置)）</tspan></tspan></text></g></g><g id="SvgjsG1266" transform="translate(220,109.5)"><path id="SvgjsPath1267" d="M 0 4Q 0 0 4 0L 352 0Q 356 0 356 4L 356 31Q 356 35 352 35L 4 35Q 0 35 0 31Z" stroke="rgba(50,50,50,1)" stroke-width="2" fill="url(#SvgjsLinearGradient1268)"></path><g id="SvgjsG1271"><text id="SvgjsText1272" font-family="微软雅黑" text-anchor="middle" font-size="13px" width="336px" fill="#323232" font-weight="400" align="middle" lineHeight="125%" anchor="middle" family="微软雅黑" size="13px" weight="400" font-style="" opacity="1" y="7.875" transform="rotate(0)"><tspan id="SvgjsTspan1273" dy="16" x="178"><tspan id="SvgjsTspan1274" style="text-decoration:;font-weight: bold;">解析/类型  检查/优化（可以是简单的 javac）</tspan></tspan></text></g></g><g id="SvgjsG1275"><path id="SvgjsPath1276" d="M398 88L398 98.75L398 98.75L398 109.5" stroke="#323232" stroke-width="1" fill="none" marker-end="url(#SvgjsMarker1277)"></path></g><g id="SvgjsG1279" transform="translate(212.25,181.5)"><path id="SvgjsPath1280" d="M 0 0L 100.25 0L 100.25 42.5L 0 42.5Z" stroke="rgba(50,50,50,1)" stroke-width="2" fill="url(#SvgjsLinearGradient1281)"></path><g id="SvgjsG1284"><text id="SvgjsText1285" font-family="微软雅黑" text-anchor="middle" font-size="13px" width="81px" fill="#323232" font-weight="400" align="middle" lineHeight="125%" anchor="middle" family="微软雅黑" size="13px" weight="400" font-style="" opacity="1" y="3.625" transform="rotate(0)"><tspan id="SvgjsTspan1286" dy="16" x="50.5"><tspan id="SvgjsTspan1287" style="text-decoration:;font-weight: bold;">配置模型</tspan></tspan><tspan id="SvgjsTspan1288" dy="16" x="50.5"><tspan id="SvgjsTspan1289" style="text-decoration:;font-weight: bold;">（高层 API</tspan><tspan id="SvgjsTspan1290" style="text-decoration:;font-weight: bold;font-size: inherit;">）</tspan></tspan></text></g></g><g id="SvgjsG1291"><path id="SvgjsPath1292" d="M292 144L262.375 181.5" stroke="#323232" stroke-width="1" fill="none" marker-end="url(#SvgjsMarker1293)"></path></g><g id="SvgjsG1295" transform="translate(355.625,187.875)"><path id="SvgjsPath1296" d="M 0 4Q 0 0 4 0L 69.375 0Q 73.375 0 73.375 4L 73.375 25.75Q 73.375 29.75 69.375 29.75L 4 29.75Q 0 29.75 0 25.75Z" stroke="rgba(50,50,50,1)" stroke-width="2" fill="url(#SvgjsLinearGradient1297)"></path><g id="SvgjsG1300"><text id="SvgjsText1301" font-family="微软雅黑" text-anchor="middle" font-size="13px" width="54px" fill="#323232" font-weight="400" align="middle" lineHeight="125%" anchor="middle" family="微软雅黑" size="13px" weight="400" font-style="" opacity="1" y="5.25" transform="rotate(0)"><tspan id="SvgjsTspan1302" dy="16" x="37"><tspan id="SvgjsTspan1303" style="text-decoration:;font-weight: bold;">配置逻辑</tspan></tspan></text></g></g><g id="SvgjsG1304"><path id="SvgjsPath1305" d="M312.5 202.75L355.625 202.75" stroke="#323232" stroke-width="1" fill="none" marker-end="url(#SvgjsMarker1306)"></path></g><g id="SvgjsG1308" transform="translate(469.625,181.5)"><path id="SvgjsPath1309" d="M 0 0L 100.25 0L 100.25 42.5L 0 42.5Z" stroke="rgba(50,50,50,1)" stroke-width="2" fill="url(#SvgjsLinearGradient1310)"></path><g id="SvgjsG1313"><text id="SvgjsText1314" font-family="微软雅黑" text-anchor="middle" font-size="13px" width="81px" fill="#323232" font-weight="400" align="middle" lineHeight="125%" anchor="middle" family="微软雅黑" size="13px" weight="400" font-style="" opacity="1" y="3.625" transform="rotate(0)"><tspan id="SvgjsTspan1315" dy="16" x="50.5"><tspan id="SvgjsTspan1316" style="text-decoration:;font-weight: bold;">AOP 模型</tspan></tspan><tspan id="SvgjsTspan1317" dy="16" x="50.5"><tspan id="SvgjsTspan1318" style="text-decoration:;font-weight: bold;">（高层 API</tspan><tspan id="SvgjsTspan1319" style="text-decoration:;font-weight: bold;font-size: inherit;">）</tspan></tspan></text></g></g><g id="SvgjsG1320"><path id="SvgjsPath1321" d="M429 202.75L469.625 202.75" stroke="#323232" stroke-width="1" fill="none" marker-end="url(#SvgjsMarker1322)"></path></g><g id="SvgjsG1324" transform="translate(483.0625,250.5)"><path id="SvgjsPath1325" d="M 0 4Q 0 0 4 0L 69.375 0Q 73.375 0 73.375 4L 73.375 25.75Q 73.375 29.75 69.375 29.75L 4 29.75Q 0 29.75 0 25.75Z" stroke="rgba(50,50,50,1)" stroke-width="2" fill="url(#SvgjsLinearGradient1326)"></path><g id="SvgjsG1329"><text id="SvgjsText1330" font-family="微软雅黑" text-anchor="middle" font-size="13px" width="54px" fill="#323232" font-weight="400" align="middle" lineHeight="125%" anchor="middle" family="微软雅黑" size="13px" weight="400" font-style="" opacity="1" y="5.25" transform="rotate(0)"><tspan id="SvgjsTspan1331" dy="16" x="37"><tspan id="SvgjsTspan1332" style="text-decoration:;font-weight: bold;">编织逻辑</tspan></tspan></text></g></g><g id="SvgjsG1333"><path id="SvgjsPath1334" d="M519.75 224L519.75 250.5" stroke="#323232" stroke-width="1" fill="none" marker-end="url(#SvgjsMarker1335)"></path></g><g id="SvgjsG1337" transform="translate(228.1875,356.5)"><path id="SvgjsPath1338" d="M 0 0L 73.375 0L 73.375 29.75L 0 29.75Z" stroke="rgba(50,50,50,1)" stroke-width="2" fill="url(#SvgjsLinearGradient1339)"></path><g id="SvgjsG1342"><text id="SvgjsText1343" font-family="微软雅黑" text-anchor="middle" font-size="13px" width="54px" fill="#323232" font-weight="400" align="middle" lineHeight="125%" anchor="middle" family="微软雅黑" size="13px" weight="400" font-style="" opacity="1" y="5.25" transform="rotate(0)"><tspan id="SvgjsTspan1344" dy="16" x="37"><tspan id="SvgjsTspan1345" style="text-decoration:;font-weight: bold;">反射</tspan></tspan></text></g></g><g id="SvgjsG1346" transform="translate(335.1875,394.5)"><path id="SvgjsPath1347" d="M 0 0L 85.8125 0L 85.8125 26.5L 0 26.5Z" stroke="rgba(50,50,50,1)" stroke-width="2" fill="url(#SvgjsLinearGradient1348)"></path><g id="SvgjsG1351"><text id="SvgjsText1352" font-family="微软雅黑" text-anchor="middle" font-size="13px" width="66px" fill="#323232" font-weight="400" align="middle" lineHeight="125%" anchor="middle" family="微软雅黑" size="13px" weight="400" font-style="" opacity="1" y="3.625" transform="rotate(0)"><tspan id="SvgjsTspan1353" dy="16" x="43"><tspan id="SvgjsTspan1354" style="text-decoration:;font-weight: bold;">元数据处理</tspan></tspan></text></g></g><g id="SvgjsG1355" transform="translate(437.1875,356.5)"><path id="SvgjsPath1356" d="M 0 0L 145.8125 0L 145.8125 26.5L 0 26.5Z" stroke="rgba(50,50,50,1)" stroke-width="2" fill="url(#SvgjsLinearGradient1357)"></path><g id="SvgjsG1360"><text id="SvgjsText1361" font-family="微软雅黑" text-anchor="middle" font-size="13px" width="126px" fill="#323232" font-weight="400" align="middle" lineHeight="125%" anchor="middle" family="微软雅黑" size="13px" weight="400" font-style="" opacity="1" y="3.625" transform="rotate(0)"><tspan id="SvgjsTspan1362" dy="16" x="73"><tspan id="SvgjsTspan1363" style="text-decoration:;font-weight: bold;">程序 Instrumentation</tspan></tspan></text></g></g><g id="SvgjsG1364" transform="translate(576,394.5)"><path id="SvgjsPath1365" d="M 0 0L 85.15625 0L 85.15625 26.5L 0 26.5Z" stroke="rgba(50,50,50,1)" stroke-width="2" fill="url(#SvgjsLinearGradient1366)"></path><g id="SvgjsG1369"><text id="SvgjsText1370" font-family="微软雅黑" text-anchor="middle" font-size="13px" width="66px" fill="#323232" font-weight="400" align="middle" lineHeight="125%" anchor="middle" family="微软雅黑" size="13px" weight="400" font-style="" opacity="1" y="3.625" transform="rotate(0)"><tspan id="SvgjsTspan1371" dy="16" x="43"><tspan id="SvgjsTspan1372" style="text-decoration:;font-weight: bold;">类加载框架</tspan></tspan></text></g></g><g id="SvgjsG1373" transform="translate(678,349.125)"><path id="SvgjsPath1374" d="M 0 0L 85.15625 0L 85.15625 26.5L 0 26.5Z" stroke="rgba(50,50,50,1)" stroke-width="2" fill="url(#SvgjsLinearGradient1375)"></path><g id="SvgjsG1378"><text id="SvgjsText1379" font-family="微软雅黑" text-anchor="middle" font-size="13px" width="66px" fill="#323232" font-weight="400" align="middle" lineHeight="125%" anchor="middle" family="微软雅黑" size="13px" weight="400" font-style="" opacity="1" y="3.625" transform="rotate(0)"><tspan id="SvgjsTspan1380" dy="16" x="43"><tspan id="SvgjsTspan1381" style="text-decoration:;font-weight: bold;">拦截器框架</tspan></tspan></text></g></g><g id="SvgjsG1382"><path id="SvgjsPath1383" d="M483.0625 265.375L264.875 356.5" stroke="#323232" stroke-width="1" fill="none" marker-end="url(#SvgjsMarker1384)"></path></g><g id="SvgjsG1386"><path id="SvgjsPath1387" d="M483.0625 265.375L378.09375 394.5" stroke="#323232" stroke-width="1" fill="none" marker-end="url(#SvgjsMarker1388)"></path></g><g id="SvgjsG1390"><path id="SvgjsPath1391" d="M519.75 280.25L510.09375 356.5" stroke="#323232" stroke-width="1" fill="none" marker-end="url(#SvgjsMarker1392)"></path></g><g id="SvgjsG1394"><path id="SvgjsPath1395" d="M556.4375 265.375L618.578125 394.5" stroke="#323232" stroke-width="1" fill="none" marker-end="url(#SvgjsMarker1396)"></path></g><g id="SvgjsG1398"><path id="SvgjsPath1399" d="M556.4375 265.375L720.578125 349.125" stroke="#323232" stroke-width="1" fill="none" marker-end="url(#SvgjsMarker1400)"></path></g><g id="SvgjsG1402"><path id="SvgjsPath1403" d="M486 142L519.75 181.5" stroke="#323232" stroke-width="1" fill="none" marker-end="url(#SvgjsMarker1404)"></path></g></svg>